<?xml version='1.0' encoding='utf-8'?>
<svg xmlns="http://www.w3.org/2000/svg" width="1200" height="555" viewBox="0 0 1200 555" role="img" aria-label="WHV Compass | application architecture"><title>WHV Compass | application architecture</title><defs><marker id="arrow" markerWidth="10" markerHeight="10" refX="8" refY="5" orient="auto" markerUnits="strokeWidth"><path d="M 0 0 L 9 5 L 0 10 z" fill="#67e8f9" /></marker></defs><rect x="1" y="1" width="1198" height="553" rx="24" fill="#0b1425" stroke="#31506b" stroke-width="2" /><text x="48" y="59" fill="#f8fafc" font-size="30" font-weight="600" font-family="Arial, Helvetica, sans-serif">WHV Compass | application architecture</text><text x="48" y="91" fill="#aabdd2" font-size="17" font-weight="400" font-family="Arial, Helvetica, sans-serif">Published Next.js site, Supabase data and on-site article search</text><rect x="55" y="204" width="195" height="105" rx="18" fill="#14253a" stroke="#a78bfa" stroke-width="2" /><rect x="73" y="223" width="5" height="27" rx="2" fill="#a78bfa" /><text x="90" y="246" fill="#f8fafc" font-size="19" font-weight="600" font-family="Arial, Helvetica, sans-serif">Visitor browser</text><text x="78" y="278" fill="#b6c8da" font-size="16" font-weight="400" font-family="Arial, Helvetica, sans-serif">Articles / community</text><rect x="335" y="167" width="295" height="180" rx="18" fill="#14253a" stroke="#38bdf8" stroke-width="2" /><rect x="353" y="186" width="5" height="27" rx="2" fill="#38bdf8" /><text x="370" y="209" fill="#f8fafc" font-size="19" font-weight="600" font-family="Arial, Helvetica, sans-serif">Vercel · Next.js</text><text x="358" y="241" fill="#b6c8da" font-size="16" font-weight="400" font-family="Arial, Helvetica, sans-serif">Pages + server routes</text><text x="358" y="266" fill="#b6c8da" font-size="16" font-weight="400" font-family="Arial, Helvetica, sans-serif">Repository articles</text><text x="358" y="291" fill="#b6c8da" font-size="16" font-weight="400" font-family="Arial, Helvetica, sans-serif">Client-side search index</text><rect x="790" y="103" width="345" height="98" rx="18" fill="#14253a" stroke="#a78bfa" stroke-width="2" /><rect x="808" y="122" width="5" height="27" rx="2" fill="#a78bfa" /><text x="825" y="145" fill="#f8fafc" font-size="19" font-weight="600" font-family="Arial, Helvetica, sans-serif">Supabase Auth</text><text x="813" y="177" fill="#b6c8da" font-size="16" font-weight="400" font-family="Arial, Helvetica, sans-serif">Member sign-in</text><rect x="790" y="239" width="345" height="105" rx="18" fill="#14253a" stroke="#34d399" stroke-width="2" /><rect x="808" y="258" width="5" height="27" rx="2" fill="#34d399" /><text x="825" y="281" fill="#f8fafc" font-size="19" font-weight="600" font-family="Arial, Helvetica, sans-serif">Supabase Postgres</text><text x="813" y="313" fill="#b6c8da" font-size="16" font-weight="400" font-family="Arial, Helvetica, sans-serif">Profiles / board / listings</text><rect x="790" y="386" width="345" height="98" rx="18" fill="#14253a" stroke="#34d399" stroke-width="2" /><rect x="808" y="405" width="5" height="27" rx="2" fill="#34d399" /><text x="825" y="428" fill="#f8fafc" font-size="19" font-weight="600" font-family="Arial, Helvetica, sans-serif">Supabase Storage</text><text x="813" y="460" fill="#b6c8da" font-size="16" font-weight="400" font-family="Arial, Helvetica, sans-serif">Uploaded media</text><path d="M 250 257 H 335" fill="none" stroke="#67e8f9" stroke-width="3" stroke-linejoin="round" marker-end="url(#arrow)" /><path d="M 250 223 H 275 V 125 H 765 V 151 H 790" fill="none" stroke="#67e8f9" stroke-width="3" stroke-linejoin="round" marker-end="url(#arrow)" /><path d="M 630 257 H 790" fill="none" stroke="#67e8f9" stroke-width="3" stroke-linejoin="round" marker-end="url(#arrow)" /><path d="M 630 308 H 710 V 435 H 790" fill="none" stroke="#67e8f9" stroke-width="3" stroke-linejoin="round" marker-end="url(#arrow)" /><text x="55" y="472" fill="#aabdd2" font-size="16" font-weight="400" font-family="Arial, Helvetica, sans-serif">AI assistant and AI news automation are currently paused.</text></svg>